<?xml version="1.0" standalone="no"?>
<!DOCTYPE svg PUBLIC "-//W3C//DTD SVG 20010904//EN"
 "http://www.w3.org/TR/2001/REC-SVG-20010904/DTD/svg10.dtd">
<svg version="1.0" xmlns="http://www.w3.org/2000/svg"
 width="1280.000000pt" height="1280.000000pt" viewBox="0 0 1280.000000 1280.000000"
 preserveAspectRatio="xMidYMid meet">
<g transform="translate(0.000000,1280.000000) scale(0.100000,-0.100000)"
fill="#000000" stroke="none">
<path d="M4214 10647 c-1089 -678 -2350 -1461 -2802 -1742 -452 -280 -822
-513 -822 -517 0 -5 289 -8 643 -8 353 0 648 -4 655 -8 10 -7 12 -548 10
-2673 l-3 -2664 -405 -5 -404 -5 -14 -25 c-16 -30 -13 -253 4 -270 7 -7 468
-9 1505 -8 l1494 3 3 141 c2 110 -1 144 -11 152 -10 8 -134 13 -413 14 l-399
3 0 2665 0 2665 1210 -3 c666 -2 1218 -6 1228 -8 16 -5 17 -138 15 -2662 l-3
-2657 -399 -3 c-274 -1 -403 -6 -413 -13 -18 -15 -19 -269 -1 -287 9 -9 356
-12 1500 -12 1460 0 1487 0 1498 19 13 25 13 247 0 272 -10 18 -25 19 -408 19
-296 0 -401 3 -410 12 -18 18 -17 5283 1 5295 13 8 2190 5 2220 -3 16 -5 17
-138 15 -2652 l-3 -2647 -399 -3 c-274 -1 -403 -6 -413 -13 -18 -15 -19 -269
-1 -287 9 -9 356 -12 1500 -12 1460 0 1487 0 1498 19 5 11 10 72 10 136 0 64
-5 125 -10 136 -10 18 -25 19 -408 19 -296 0 -401 3 -410 12 -17 17 -18 5258
-1 5275 8 8 229 9 777 6 679 -5 765 -4 752 10 -8 8 -103 66 -210 129 -107 63
-1450 856 -2983 1762 -1533 906 -2793 1649 -2800 1651 -7 2 -903 -550 -1993
-1228z"/>
<path d="M1022 2428 c-17 -17 -17 -519 0 -536 9 -9 1197 -12 5284 -12 4780 0
5274 1 5288 16 24 23 24 505 0 528 -14 15 -508 16 -5288 16 -4087 0 -5275 -3
-5284 -12z"/>
<path d="M1026 1714 c-14 -13 -16 -58 -16 -339 0 -323 0 -324 22 -339 34 -24
10522 -24 10556 0 22 15 22 16 22 339 0 281 -2 326 -16 339 -14 15 -508 16
-5284 16 -4776 0 -5270 -1 -5284 -16z"/>
</g>
</svg>
